<svg width="75" height="22" fill="none" xmlns="http://www.w3.org/2000/svg"><path d="M49.4.19h-2.63v21.27h2.62V.2zM56.08.19h-2.63v21.27h2.63V.2zM73.73 7.12l-1.31 2.85a6.5 6.5 0 00-5.78-3.22c-4.43 0-7.44 3.37-7.44 7.53 0 4.15 3 7.53 7.44 7.53a6.52 6.52 0 005.59-2.92v2.57H75V7.12h-1.27zm-6.69 13.15c-3.11 0-4.83-2.55-4.83-6 0-3.52 1.72-5.99 4.83-5.99 2.86 0 5 2.51 5 6 0 3.48-2.14 6-5 6zM23.11 8.26c-.83.8-1.48 1.8-1.84 2.9L19.9 7.1h-1.27v14.35h2.78V16c0-1.97.21-3.62 1-4.78.7-1 1.88-1.6 3.36-1.6.47 0 .95.04 1.42.12V7a4.82 4.82 0 00-4.09 1.28zM35.74 6.75a7.35 7.35 0 00-7.62 7.53 7.3 7.3 0 007.6 7.53 8.22 8.22 0 004.73-1.43c1.16-.89 2-2.14 2.38-3.57h-2.86c-.43 1.82-1.55 3.48-4.06 3.48-3.55 0-4.69-2.79-4.75-5.77v-.05h12v-.34c.02-4.29-3.02-7.38-7.42-7.38zm.02 1.51c3.14 0 4.13 2.58 4.21 4.66h-8.73c.26-2.54 1.55-4.66 4.52-4.66zM9.46 11.01c2.82-.58 4.99-2.1 4.99-4.74 0-3.24-2.43-4.8-6.17-4.8H0v20.02h9.16c3.38 0 6.04-1.74 6.04-5.4 0-3.02-2.54-4.86-5.74-5.08zm-2.13-8.1c2.69 0 4.09 1.37 4.09 3.51 0 2.15-1.53 3.81-4.32 3.81h-4V2.92h4.23zM7.7 20H3.1v-8.1h4.12c2.95 0 4.78 1.46 4.78 4.08 0 2.3-1.53 4.02-4.3 4.02z" fill="#214E41"/></svg>